<?xml version="1.0" encoding="UTF-8" standalone="no"?>
<svg width="300px" height="67px" viewBox="0 0 300 67" version="1.1" xmlns="http://www.w3.org/2000/svg" xmlns:xlink="http://www.w3.org/1999/xlink">
    <!-- Generator: Sketch 43.2 (39069) - http://www.bohemiancoding.com/sketch -->
    <title>logo</title>
    <desc>Created with Sketch.</desc>
    <defs></defs>
    <g id="Page-1" stroke="none" stroke-width="1" fill="none" fill-rule="evenodd">
        <g id="Disseny-Home-capçalera-blanca" transform="translate(-13.000000, -52.000000)">
            <g id="logo" transform="translate(13.000000, 52.000000)">
                <g id="Group" fill="#FF6600">
                    <path d="M34.2126961,14.0934668 C28.4847549,8.3937165 19.1994608,8.3937165 13.4602451,14.0934668 C7.7347549,19.7912658 7.7347549,29.039457 13.4602451,34.7387195 C19.1994608,40.4472506 28.4847549,40.4472506 34.2126961,34.7387195 C39.9391667,29.039457 39.9391667,19.7912658 34.2126961,14.0934668 Z M40.6725,41.1672807 C31.3725,50.4218137 16.3004412,50.4218137 7.00044118,41.1672807 C-2.29465686,31.9146991 -2.29465686,16.9140724 7.00044118,7.66295426 C16.3004412,-1.58913956 31.3725,-1.58913956 40.6725,7.66295426 C49.967598,16.9140724 49.967598,31.9146991 40.6725,41.1672807 Z" id="Fill-1"></path>
                    <polygon id="Fill-3" points="33.0298529 22.4664995 27.4484804 22.4664995 29.4989706 19.0687966 29.2195588 18.7921997 25.7989706 20.8137475 25.7989706 15.2705891 21.8739706 15.2705891 21.8739706 20.8215527 18.4695588 18.7770771 18.1930882 19.0429418 20.2278922 22.4664995 14.6538725 22.4664995 14.6538725 26.3637355 20.217598 26.3637355 18.1656373 29.7589993 18.4381863 30.0341327 21.8739706 28.0013649 21.8739706 33.5606215 25.7989706 33.5606215 25.7989706 28.0257561 29.2195588 30.0716952 29.4945588 29.7980253 27.4519118 26.3637355 33.0298529 26.3637355"></polygon>
                    <path d="M22.7706373,21.5856822 L18.3667157,18.9504502 L20.9956373,23.358927 L22.7706373,21.5856822 Z M24.9127941,27.2586021 L29.3186765,29.9001759 L26.6912255,25.4843817 L24.9127941,27.2586021 Z M20.9814216,25.4760886 L18.329951,29.8616377 L22.7686765,27.2488456 L20.9814216,25.4760886 Z M24.8922059,21.5856822 L29.3186765,18.9699632 L26.6652451,23.358927 L24.8922059,21.5856822 Z" id="Fill-5"></path>
                    <path d="M71.8046078,22.4531819 L65.4820588,22.4531819 L65.4820588,11.5810204 L71.8046078,11.5810204 C76.087451,11.5810204 78.6546078,13.6084221 78.6546078,17.0071007 C78.6546078,20.4160236 76.087451,22.4531819 71.8046078,22.4531819 M71.9987255,1.29083441 L54.4266667,1.29083441 L54.4266667,47.6474051 L65.4820588,47.6474051 L65.4820588,32.73166 L71.9987255,32.73166 C83.3271569,32.73166 90.1653922,26.8367796 90.1653922,17.0071007 C90.1653922,7.18864176 83.3271569,1.29083441 71.9987255,1.29083441" id="Fill-7"></path>
                    <polygon id="Fill-9" points="95.482451 11.5809716 107.989314 11.5809716 107.989314 47.6473563 119.043235 47.6473563 119.043235 11.5809716 131.749118 11.5809716 131.749118 1.29078563 95.482451 1.29078563"></polygon>
                    <polygon id="Fill-11" points="140.076961 47.6473563 151.136765 47.6473563 151.136765 1.29078563 140.076961 1.29078563"></polygon>
                    <path d="M188.159167,15.1777072 C184.800343,20.616471 184.279755,21.7896907 184.207696,21.7896907 L184.140049,21.7896907 C184.075833,21.7896907 183.549853,20.616471 180.195441,15.1777072 L171.570441,1.29078563 L161.171422,1.29078563 L161.171422,47.6473563 L172.024363,47.6473563 C172.024363,47.6473563 171.975343,23.3912211 172.021912,20.0798632 C172.859167,21.4433348 175.579265,26.079626 175.912598,26.6484303 L181.309657,35.8127156 L184.180245,40.708042 L187.04299,35.8127156 L192.440539,26.6484303 C192.771912,26.079626 195.471422,21.4877269 196.314069,20.0959614 L196.314069,47.6473563 L207.181716,47.6473563 L207.181716,1.29078563 L196.783186,1.29078563 L188.159167,15.1777072 Z" id="Fill-13"></path>
                    <path d="M245.903725,26.5115465 C245.903725,34.3679723 242.672843,37.7695778 236.621373,37.7695778 C230.561569,37.7695778 227.343922,34.3679723 227.343922,26.5115465 L227.343922,1.29049293 L216.276765,1.29049293 L216.276765,26.7691183 C216.276765,40.5218879 224.374804,48.0739107 236.621373,48.0739107 C248.800784,48.0739107 256.961078,40.5218879 256.961078,26.7691183 L256.961078,1.29049293 L245.903725,1.29049293 L245.903725,26.5115465 Z" id="Fill-14"></path>
                    <path d="M285.901618,19.5042782 C280.303088,17.4671199 275.694755,16.3548783 275.694755,13.3386548 C275.694755,11.5083344 277.603578,9.87168068 280.893284,9.87168068 C284.183971,9.87168068 287.740833,11.7717601 288.85848,15.8299784 L298.474167,10.3058452 C295.555049,4.46608901 289.251618,0.377625531 281.552108,0.377625531 C271.549657,0.377625531 264.305539,6.85887189 264.305539,13.9962432 C264.305539,22.0502382 270.690833,25.0635348 276.215343,27.1636225 C282.80652,29.6515314 288.194755,30.5740089 288.194755,34.2351375 C288.194755,36.4635232 286.355539,38.2957949 282.409951,38.2957949 C277.536912,38.2957949 274.247696,34.8249182 273.059461,31.3564806 L263.566814,36.8167087 C266.990833,43.8282211 273.372206,48.0737643 281.942794,48.0737643 C292.675147,48.0737643 299.916814,42.1047345 299.916814,33.7151157 C299.916814,25.8533239 292.744755,21.9887722 285.901618,19.5042782" id="Fill-15"></path>
                </g>
                <g id="Group-25" transform="translate(0.000000, 53.372881)" fill="#464349">
                    <polygon id="Fill-16" points="1.90573356 5.08506415 1.90573356 7.45670691 5.67571669 7.45670691 5.67571669 9.30318149 1.90573356 9.30318149 1.90573356 13.1952962 0 13.1952962 0 3.25274081 6.71787521 3.25274081 6.71787521 5.08506415"></polygon>
                    <polygon id="Fill-17" points="8.0906914 3.2526884 14.904688 3.2526884 14.904688 5.08501173 9.99642496 5.08501173 9.99642496 7.17258149 13.6844519 7.17258149 13.6844519 9.01958018 9.99642496 9.01958018 9.99642496 11.3629205 14.9593255 11.3629205 14.9593255 13.1952438 8.0906914 13.1952438"></polygon>
                    <path d="M19.978887,8.11049413 C21.0210455,8.11049413 21.6519056,7.65608214 21.6519056,6.61884876 C21.6519056,5.59629074 21.0483642,5.0564472 19.9515683,5.0564472 L18.3473524,5.0564472 L18.3473524,8.11049413 L19.978887,8.11049413 Z M19.7183474,9.70119817 L19.1016526,9.70119817 L18.3473524,9.70119817 L18.3473524,13.1949817 L16.4421248,13.1949817 L16.4421248,3.25242634 L19.8417875,3.25242634 C22.213457,3.25242634 23.5981113,4.50245241 23.5981113,6.51979009 C23.5981113,7.95378227 22.8852951,8.91973533 21.6519056,9.31754237 L23.9137943,13.1949817 L21.6519056,13.1949817 L19.7183474,9.70119817 Z" id="Fill-18"></path>
                    <path d="M28.6320911,8.11049413 C29.6742496,8.11049413 30.3046037,7.65608214 30.3046037,6.61884876 C30.3046037,5.59629074 29.7010624,5.0564472 28.6042664,5.0564472 L27.0005565,5.0564472 L27.0005565,8.11049413 L28.6320911,8.11049413 Z M28.3715514,9.70119817 L27.7548567,9.70119817 L27.0005565,9.70119817 L27.0005565,13.1949817 L25.0948229,13.1949817 L25.0948229,3.25242634 L28.4949916,3.25242634 C30.866661,3.25242634 32.2513153,4.50245241 32.2513153,6.51979009 C32.2513153,7.95378227 31.5384992,8.91973533 30.3046037,9.31754237 L32.5664924,13.1949817 L30.3046037,13.1949817 L28.3715514,9.70119817 Z" id="Fill-19"></path>
                    <polygon id="Fill-20" points="33.7479258 3.2526884 40.5614165 3.2526884 40.5614165 5.08501173 35.6536594 5.08501173 35.6536594 7.17258149 39.3416863 7.17258149 39.3416863 9.01958018 35.6536594 9.01958018 35.6536594 11.3629205 40.6165599 11.3629205 40.6165599 13.1952438 33.7479258 13.1952438"></polygon>
                    <polygon id="Fill-21" points="46.6504047 5.08506415 46.6504047 13.1952962 44.7446712 13.1952962 44.7446712 5.08506415 41.6875042 5.08506415 41.6875042 3.25274081 49.7075717 3.25274081 49.7075717 5.08506415"></polygon>
                    <polygon id="Fill-22" points="51.0261551 3.2526884 57.8396459 3.2526884 57.8396459 5.08501173 52.9318887 5.08501173 52.9318887 7.17258149 56.6199157 7.17258149 56.6199157 9.01958018 52.9318887 9.01958018 52.9318887 11.3629205 57.8947892 11.3629205 57.8947892 13.1952438 51.0261551 13.1952438"></polygon>
                    <path d="M62.9143508,8.11049413 C63.9565093,8.11049413 64.5868634,7.65608214 64.5868634,6.61884876 C64.5868634,5.59629074 63.9833221,5.0564472 62.8865261,5.0564472 L61.2828162,5.0564472 L61.2828162,8.11049413 L62.9143508,8.11049413 Z M62.6538111,9.70119817 L62.0371164,9.70119817 L61.2828162,9.70119817 L61.2828162,13.1949817 L59.3770826,13.1949817 L59.3770826,3.25242634 L62.7772513,3.25242634 C65.1489207,3.25242634 66.533575,4.50245241 66.533575,6.51979009 C66.533575,7.95378227 65.8207589,8.91973533 64.5868634,9.31754237 L66.8487521,13.1949817 L64.5868634,13.1949817 L62.6538111,9.70119817 Z" id="Fill-23"></path>
                    <path d="M68.0304384,13.1952438 L69.936172,13.1952438 L69.936172,3.2526884 L68.0304384,3.2526884 L68.0304384,13.1952438 Z M68.0304384,2.48537679 L69.5243676,0 L71.0188027,0.511541069 L69.7302698,2.48537679 L68.0304384,2.48537679 Z" id="Fill-24"></path>
                    <path d="M76.6132715,7.22965815 C76.2844351,6.37743911 75.9550927,5.4969176 75.9414334,5.48276636 L75.9004553,5.48276636 C75.8862901,5.4969176 75.5574536,6.36328787 75.2286172,7.22965815 L74.4196796,9.41681069 L77.4085497,9.41681069 L76.6132715,7.22965815 Z M73.7615008,11.2066803 L73.0350253,13.1951914 L71.019511,13.1951914 L74.8582968,3.25263598 L77.0109106,3.25263598 L80.8496965,13.1951914 L78.8068634,13.1951914 L78.079882,11.2066803 L73.7615008,11.2066803 Z" id="Fill-25"></path>
                    <path d="M83.3061046,10.1558198 C83.4568634,11.1354 84.2931197,11.6469411 85.4723777,11.6469411 C86.5145363,11.6469411 87.1585497,11.2349828 87.1585497,10.4110662 C87.1585497,9.23232047 85.8700169,9.24699583 84.6770995,8.94824746 C83.3749073,8.63587197 81.7433727,8.05305059 81.7433727,5.97963207 C81.7433727,4.04825007 83.1416863,3.0534704 85.2533221,3.0534704 C87.1448904,3.0534704 88.5158853,3.86323572 89.0233052,5.61065163 L87.1995278,6.10751734 C86.9531535,5.26997366 86.3222934,4.80088631 85.2118381,4.80088631 C84.1565261,4.80088631 83.6900843,5.22699583 83.6900843,5.92302712 C83.6900843,6.91675854 84.7049241,7.10177288 86.0480944,7.38584589 C87.4737268,7.6699189 89.0921079,8.23806493 89.0921079,10.4110662 C89.0921079,12.3854261 87.7479258,13.3796816 85.4723777,13.3796816 C83.8271838,13.3796816 81.948769,12.8539893 81.4828331,10.6668368 L83.3061046,10.1558198 Z" id="Fill-26"></path>
                    <path d="M97.5533727,11.3627108 C99.2258853,11.3627108 100.774958,10.4392115 100.774958,8.26673429 C100.774958,6.10788422 99.2258853,5.08480209 97.5255481,5.08480209 L95.7022766,5.08480209 L95.7022766,11.3627108 L97.5533727,11.3627108 Z M97.6353288,3.25247875 C100.528078,3.25247875 102.694351,5.24098983 102.694351,8.26673429 C102.694351,11.3061059 100.514924,13.1950342 97.6631535,13.1950342 L93.796543,13.1950342 L93.796543,3.25247875 L97.6353288,3.25247875 Z" id="Fill-27"></path>
                    <polygon id="Fill-28" points="103.999174 3.2526884 110.81317 3.2526884 110.81317 5.08501173 105.904907 5.08501173 105.904907 7.17258149 109.592934 7.17258149 109.592934 9.01958018 105.904907 9.01958018 105.904907 11.3629205 110.867808 11.3629205 110.867808 13.1952438 103.999174 13.1952438"></polygon>
                    <path d="M124.854789,10.2975943 C124.114148,12.214825 122.373339,13.3799437 120.303187,13.3799437 C117.465076,13.3799437 115.339781,11.306001 115.339781,8.19534915 C115.339781,5.14182634 117.465076,3.05373246 120.303187,3.05373246 C122.524098,3.05373246 124.114148,4.30323442 124.745008,5.8661601 L122.852934,6.40600365 C122.414317,5.63869205 121.578061,4.91435828 120.220725,4.91435828 C118.452091,4.91435828 117.259174,6.22151343 117.259174,8.21002451 C117.259174,10.2409893 118.520388,11.5193179 120.207066,11.5193179 C121.564401,11.5193179 122.524098,10.7803087 122.976374,9.78605319 L124.854789,10.2975943 Z" id="Fill-29"></path>
                    <path d="M130.738634,11.5193179 C132.507268,11.5193179 133.850944,10.2551405 133.850944,8.22417575 C133.850944,6.19268683 132.507268,4.91435828 130.738634,4.91435828 C128.97,4.91435828 127.626324,6.19268683 127.626324,8.22417575 C127.626324,10.2409893 128.97,11.5193179 130.738634,11.5193179 M130.738634,3.05373246 C133.631383,3.05373246 135.770337,5.15597757 135.770337,8.22417575 C135.770337,11.2776986 133.631383,13.3799437 130.738634,13.3799437 C127.845885,13.3799437 125.706931,11.2776986 125.706931,8.22417575 C125.706931,5.15597757 127.845885,3.05373246 130.738634,3.05373246" id="Fill-30"></path>
                    <path d="M138.994351,6.54788292 L138.953373,6.54788292 C138.953373,6.56203416 138.980691,7.75545528 138.980691,9.01963259 L138.980691,13.1952962 L137.074958,13.1952962 L137.074958,3.25274081 L139.00801,3.25274081 L143.60059,9.80057132 L143.642074,9.80057132 C143.642074,9.78642008 143.614755,8.55054524 143.614755,7.45670691 L143.614755,3.25274081 L145.519983,3.25274081 L145.519983,13.1952962 L143.587437,13.1952962 L138.994351,6.54788292 Z" id="Fill-31"></path>
                    <polygon id="Fill-32" points="149.155902 5.08506415 149.155902 7.45670691 152.925885 7.45670691 152.925885 9.30318149 149.155902 9.30318149 149.155902 13.1952962 147.250169 13.1952962 147.250169 3.25274081 153.968044 3.25274081 153.968044 5.08506415"></polygon>
                    <polygon id="Fill-33" points="155.341062 13.1952438 157.246796 13.1952438 157.246796 3.2526884 155.341062 3.2526884"></polygon>
                    <path d="M163.923895,7.22965815 C163.595059,6.37743911 163.265717,5.4969176 163.252057,5.48276636 L163.211079,5.48276636 C163.196914,5.4969176 162.868078,6.36328787 162.539241,7.22965815 L161.730304,9.41681069 L164.719174,9.41681069 L163.923895,7.22965815 Z M161.072125,11.2066803 L160.345649,13.1951914 L158.330135,13.1951914 L162.168921,3.25263598 L164.321535,3.25263598 L168.16032,13.1951914 L166.117487,13.1951914 L165.390506,11.2066803 L161.072125,11.2066803 Z" id="Fill-34"></path>
                    <path d="M171.165076,6.54788292 L171.124098,6.54788292 C171.124098,6.56203416 171.151922,7.75545528 171.151922,9.01963259 L171.151922,13.1952962 L169.245683,13.1952962 L169.245683,3.25274081 L171.178735,3.25274081 L175.771315,9.80057132 L175.812799,9.80057132 C175.812799,9.78642008 175.785481,8.55054524 175.785481,7.45670691 L175.785481,3.25274081 L177.690708,3.25274081 L177.690708,13.1952962 L175.758162,13.1952962 L171.165076,6.54788292 Z" id="Fill-35"></path>
                    <path d="M182.642277,10.1696042 C181.957285,10.9227645 181.532327,11.3058962 181.532327,11.3200475 L181.55914,11.3771765 C181.573305,11.3771765 182.121703,11.3625012 182.903322,11.3625012 L187.098263,11.3625012 L187.098263,13.1948245 L179.091349,13.1948245 L179.091349,11.3625012 L183.766897,6.15012829 C184.356273,5.4829236 184.739747,5.14172151 184.739747,5.12757027 L184.712934,5.0704412 C184.698769,5.0704412 184.082074,5.08511656 183.437555,5.08511656 L179.228954,5.08511656 L179.228954,3.25279322 L187.098263,3.25279322 L187.098263,5.15639687 L182.642277,10.1696042 Z" id="Fill-36"></path>
                    <path d="M193.447993,7.22965815 C193.119157,6.37743911 192.789815,5.4969176 192.776155,5.48276636 L192.735177,5.48276636 C192.721012,5.4969176 192.392175,6.36328787 192.063339,7.22965815 L191.254401,9.41681069 L194.243272,9.41681069 L193.447993,7.22965815 Z M190.596223,11.2066803 L189.869747,13.1951914 L187.854233,13.1951914 L191.693019,3.25263598 L193.845632,3.25263598 L197.684418,13.1951914 L195.641585,13.1951914 L194.914604,11.2066803 L190.596223,11.2066803 Z" id="Fill-37"></path>
                    <path d="M207.051551,13.1950866 L205.132159,13.1950866 L205.132159,9.14678409 L201.512934,3.25253116 L203.720185,3.23837992 L205.419511,6.13571499 C205.817656,6.80344381 206.119174,7.34328735 206.133339,7.35743859 L206.174317,7.35743859 C206.18747,7.34328735 206.475329,6.80344381 206.872968,6.15039035 L208.627943,3.25253116 L210.670776,3.25253116 L207.051551,9.14678409 L207.051551,13.1950866 Z" id="Fill-38"></path>
                    <path d="M218.55688,8.15300026 C219.736138,8.15300026 220.29769,7.570703 220.29769,6.60474993 C220.29769,5.61049439 219.708314,5.05649961 218.55688,5.05649961 L217.048786,5.05649961 L217.048786,8.15300026 L218.55688,8.15300026 Z M218.502243,3.25247875 C220.80511,3.25247875 222.203423,4.46005111 222.203423,6.57592334 C222.203423,8.62156349 220.80511,9.88574081 218.502243,9.88574081 L217.048786,9.88574081 L217.048786,13.1950342 L215.143052,13.1950342 L215.143052,3.25247875 L218.502243,3.25247875 Z" id="Fill-39"></path>
                    <path d="M226.935379,8.11049413 C227.977538,8.11049413 228.607892,7.65608214 228.607892,6.61884876 C228.607892,5.59629074 228.004351,5.0564472 226.907555,5.0564472 L225.303845,5.0564472 L225.303845,8.11049413 L226.935379,8.11049413 Z M226.674334,9.70119817 L226.058145,9.70119817 L225.303845,9.70119817 L225.303845,13.1949817 L223.398111,13.1949817 L223.398111,3.25242634 L226.79828,3.25242634 C229.169949,3.25242634 230.554604,4.50245241 230.554604,6.51979009 C230.554604,7.95378227 229.841788,8.91973533 228.607892,9.31754237 L230.869781,13.1949817 L228.607892,13.1949817 L226.674334,9.70119817 Z" id="Fill-40"></path>
                    <path d="M236.547521,11.5193179 C238.316155,11.5193179 239.659831,10.2551405 239.659831,8.22417575 C239.659831,6.19268683 238.316155,4.91435828 236.547521,4.91435828 C234.779393,4.91435828 233.435717,6.19268683 233.435717,8.22417575 C233.435717,10.2409893 234.779393,11.5193179 236.547521,11.5193179 M236.547521,3.05373246 C239.440776,3.05373246 241.579224,5.15597757 241.579224,8.22417575 C241.579224,11.2776986 239.440776,13.3799437 236.547521,13.3799437 C233.654772,13.3799437 231.516324,11.2776986 231.516324,8.22417575 C231.516324,5.15597757 233.654772,3.05373246 236.547521,3.05373246" id="Fill-41"></path>
                    <path d="M247.380961,11.2066279 C246.750607,10.2553502 246.380287,9.68720417 246.366627,9.68720417 L246.352968,9.68720417 C246.339309,9.68720417 245.955329,10.2553502 245.283491,11.2207791 L243.95398,13.195139 L241.650607,13.195139 L245.269831,8.05299817 L241.856003,3.25258357 L244.173035,3.25258357 L245.475228,5.15618722 C246.064604,5.99425502 246.462749,6.5901794 246.476408,6.5901794 L246.490067,6.5901794 C246.517386,6.5901794 246.901366,5.97957966 247.436105,5.14203598 L248.67,3.25258357 L250.959207,3.25258357 L247.586863,8.06767353 L251.123626,13.195139 L248.738803,13.195139 L247.380961,11.2066279 Z" id="Fill-42"></path>
                    <polygon id="Fill-43" points="252.263828 13.1952438 254.170067 13.1952438 254.170067 3.2526884 252.263828 3.2526884"></polygon>
                    <path d="M263.397875,10.0846443 C263.397875,8.01070169 263.425194,6.54788292 263.425194,6.53373168 L263.397875,6.53373168 C263.384216,6.54788292 262.959258,7.40010196 262.355211,8.50756741 L261.14914,10.7376978 L260.066003,10.7376978 L258.859427,8.536394 C258.243238,7.40010196 257.831433,6.54788292 257.817774,6.53373168 L257.776796,6.53373168 C257.776796,6.54788292 257.804115,8.01070169 257.804115,10.0846443 L257.804115,13.1952962 L255.898381,13.1952962 L255.898381,3.25274081 L257.927555,3.25274081 L260.614401,8.23816975 L260.655885,8.23816975 L263.356391,3.25274081 L265.303609,3.25274081 L265.303609,13.1952962 L263.397875,13.1952962 L263.397875,10.0846443 Z" id="Fill-44"></path>
                    <polygon id="Fill-45" points="267.033137 13.1952438 268.939376 13.1952438 268.939376 3.2526884 267.033137 3.2526884"></polygon>
                    <path d="M274.423508,11.3627108 C276.09602,11.3627108 277.645093,10.4392115 277.645093,8.26673429 C277.645093,6.10788422 276.09602,5.08480209 274.395683,5.08480209 L272.572411,5.08480209 L272.572411,11.3627108 L274.423508,11.3627108 Z M274.505464,3.25247875 C277.398212,3.25247875 279.564486,5.24098983 279.564486,8.26673429 C279.564486,11.3061059 277.385059,13.1950342 274.533288,13.1950342 L270.666678,13.1950342 L270.666678,3.25247875 L274.505464,3.25247875 Z" id="Fill-46"></path>
                    <path d="M285.407605,7.22965815 C285.078769,6.37743911 284.749427,5.4969176 284.735767,5.48276636 L284.694789,5.48276636 C284.680624,5.4969176 284.351788,6.36328787 284.022951,7.22965815 L283.214013,9.41681069 L286.202884,9.41681069 L285.407605,7.22965815 Z M282.555835,11.2066803 L281.829359,13.1951914 L279.813845,13.1951914 L283.652631,3.25263598 L285.805245,3.25263598 L289.64403,13.1951914 L287.601197,13.1951914 L286.874216,11.2066803 L282.555835,11.2066803 Z" id="Fill-47"></path>
                    <path d="M294.485666,11.3627108 C296.158179,11.3627108 297.707251,10.4392115 297.707251,8.26673429 C297.707251,6.10788422 296.158179,5.08480209 294.457841,5.08480209 L292.63457,5.08480209 L292.63457,11.3627108 L294.485666,11.3627108 Z M294.567622,3.25247875 C297.460371,3.25247875 299.626644,5.24098983 299.626644,8.26673429 C299.626644,11.3061059 297.447218,13.1950342 294.595447,13.1950342 L290.728836,13.1950342 L290.728836,3.25247875 L294.567622,3.25247875 Z" id="Fill-48"></path>
                </g>
            </g>
        </g>
    </g>
</svg>